<?xml version="1.0" standalone="no"?>
<!DOCTYPE svg PUBLIC "-//W3C//DTD SVG 20010904//EN"
 "http://www.w3.org/TR/2001/REC-SVG-20010904/DTD/svg10.dtd">
<svg version="1.0" xmlns="http://www.w3.org/2000/svg"
 width="512.000000pt" height="512.000000pt" viewBox="0 0 512.000000 512.000000"
 preserveAspectRatio="xMidYMid meet">

<g transform="translate(0.000000,512.000000) scale(0.100000,-0.100000)"
fill="#000000" stroke="none">
<path d="M3705 5102 c-16 -11 -37 -28 -46 -38 -9 -10 -179 -374 -379 -809
-199 -434 -373 -810 -385 -835 l-22 -44 -8 34 c-26 120 -136 301 -248 407 -92
87 -146 125 -250 173 -298 138 -639 109 -914 -78 -165 -113 -304 -304 -359
-496 l-19 -66 -55 -21 c-219 -81 -406 -254 -509 -470 -40 -83 -81 -218 -81
-268 0 -44 -10 -49 -107 -52 -85 -4 -94 -6 -122 -33 -41 -39 -45 -71 -27 -202
107 -765 486 -1405 1063 -1794 l52 -34 3 -156 c3 -154 3 -157 33 -206 19 -30
49 -60 79 -79 l49 -30 1084 -3 c731 -1 1097 1 1123 8 56 15 119 68 148 124 23
44 26 63 29 180 2 72 3 138 3 148 0 9 40 46 93 84 203 149 360 299 499 480
267 348 445 788 513 1264 21 153 20 164 -19 208 -34 37 -35 37 -128 41 -98 3
-108 8 -108 52 0 103 -102 345 -184 437 -41 46 -126 15 -126 -46 0 -14 19 -54
41 -91 64 -100 101 -198 123 -319 l6 -33 -71 3 -71 3 -19 73 c-55 218 -234
400 -449 458 -85 22 -234 22 -319 -1 -66 -17 -144 -52 -193 -86 -14 -11 -31
-19 -36 -19 -6 0 -27 23 -48 51 l-38 52 30 23 c48 39 184 102 259 120 93 22
268 22 358 1 37 -9 105 -33 151 -53 77 -33 86 -35 112 -23 33 16 50 55 41 91
-12 47 -209 128 -352 146 -32 4 -59 11 -59 15 1 5 198 282 439 615 241 333
445 619 453 635 17 34 11 96 -11 131 -9 13 -54 49 -101 81 -83 56 -86 57 -141
53 -42 -4 -62 -11 -80 -29 -13 -13 -267 -382 -565 -819 -298 -437 -558 -810
-578 -828 -90 -81 -120 -148 512 1132 277 561 278 564 235 632 -15 26 -43 45
-107 76 -104 49 -155 57 -197 30z m132 -165 l43 -22 -406 -820 c-222 -450
-406 -820 -408 -822 -6 -6 -56 20 -56 28 0 5 158 352 351 771 194 420 364 791
380 826 15 34 34 62 41 62 7 -1 32 -11 55 -23z m750 -251 c-3 -6 -214 -302
-471 -656 l-466 -645 -47 -12 c-26 -7 -49 -11 -51 -9 -3 4 859 1274 925 1364
l24 32 45 -31 c25 -17 43 -36 41 -43z m-2497 -767 c167 -27 313 -101 430 -218
82 -82 138 -165 176 -262 l24 -62 -47 7 c-25 3 -60 6 -77 6 -28 0 -34 6 -65
68 -48 94 -164 206 -262 255 -99 49 -186 70 -289 70 -108 0 -174 -15 -279 -65
-67 -32 -100 -56 -165 -121 -51 -51 -94 -105 -114 -143 l-32 -61 -72 -6 c-40
-3 -74 -4 -76 -2 -3 2 19 52 48 111 46 94 63 118 143 198 99 98 168 144 275
183 129 48 259 62 382 42z m-40 -290 c75 -11 174 -55 233 -101 36 -29 127
-141 127 -157 0 -3 -29 -14 -65 -24 l-66 -17 -57 59 c-72 73 -143 103 -250
103 -95 0 -179 -39 -247 -114 l-46 -51 -62 18 c-34 10 -64 20 -66 21 -9 7 52
94 96 135 89 84 185 124 323 137 8 1 44 -3 80 -9z m26 -315 c53 -30 63 -54 32
-74 -12 -8 -47 -35 -77 -59 l-53 -43 -27 21 c-14 12 -50 38 -78 58 -29 20 -53
39 -53 44 0 17 77 69 115 77 52 12 90 5 141 -24z m-557 -98 c200 -47 400 -198
500 -379 39 -71 91 -227 91 -273 0 -23 -3 -24 -69 -24 l-68 0 -13 61 c-14 65
-66 183 -101 228 -48 61 -136 144 -188 175 -31 19 -92 47 -136 62 -68 23 -96
27 -190 27 -185 -1 -318 -56 -447 -185 -88 -88 -151 -201 -171 -306 l-12 -62
-71 0 -71 0 9 55 c25 161 127 343 250 448 129 109 242 159 428 191 41 7 199
-4 259 -18z m1291 -6 c202 -56 384 -200 478 -378 35 -67 77 -189 86 -250 l6
-43 -71 3 -72 3 -13 60 c-66 320 -397 540 -723 481 -102 -18 -226 -76 -294
-136 -27 -24 -52 -39 -56 -34 -4 5 -22 31 -40 58 l-32 49 23 24 c66 71 252
158 392 183 74 13 230 3 316 -20z m-1329 -285 c69 -19 119 -48 177 -100 80
-72 132 -157 156 -257 l6 -28 -72 0 -73 0 -19 51 c-22 63 -93 142 -157 175
-175 88 -395 8 -470 -170 l-23 -56 -69 0 -69 0 7 33 c12 63 78 181 129 233 63
62 178 121 261 133 69 10 149 5 216 -14z m1254 3 c160 -41 312 -198 340 -350
l7 -38 -69 0 -69 0 -23 54 c-96 232 -397 282 -567 93 -24 -27 -52 -71 -61 -98
-20 -55 -33 -63 -33 -21 0 15 -9 63 -19 107 l-20 80 42 43 c124 128 296 175
472 130z m1180 -3 c154 -43 302 -199 330 -348 l7 -37 -69 0 -69 0 -23 54 c-38
94 -120 169 -213 197 -18 6 -65 10 -104 10 -84 0 -159 -29 -223 -86 -29 -26
-42 -33 -45 -24 -33 95 -46 134 -46 136 0 1 21 16 47 34 117 81 263 104 408
64z m-2466 -303 c13 -10 35 -32 49 -50 l25 -32 -177 0 -176 0 12 25 c15 33 80
77 126 85 46 8 109 -5 141 -28z m1257 2 c35 -20 74 -61 74 -79 0 -3 -76 -5
-170 -5 -93 0 -170 4 -170 9 0 17 42 62 73 78 71 37 125 36 193 -3z m1178 -3
c20 -13 43 -36 51 -52 l16 -29 -171 0 c-97 0 -170 4 -170 9 0 17 53 73 79 83
74 30 134 26 195 -11z m922 -253 c-3 -13 -10 -57 -16 -98 -37 -258 -128 -546
-252 -795 -161 -324 -427 -627 -729 -833 l-75 -52 -906 0 -907 0 -20 -26 c-34
-43 -24 -86 26 -112 16 -9 248 -12 887 -12 l866 0 0 -114 c0 -63 -3 -122 -6
-131 -18 -46 3 -45 -1114 -45 -780 0 -1057 3 -1073 12 -42 22 -46 38 -47 160
l0 116 101 4 c92 3 103 5 120 27 25 31 24 69 -3 98 -20 22 -29 23 -145 23
l-124 0 -62 42 c-538 360 -886 935 -997 1646 l-17 112 2249 0 2248 0 -4 -22z"/>
</g>
</svg>
