<?xml version="1.0" standalone="no"?>
<!DOCTYPE svg PUBLIC "-//W3C//DTD SVG 20010904//EN"
 "http://www.w3.org/TR/2001/REC-SVG-20010904/DTD/svg10.dtd">
<svg version="1.0" xmlns="http://www.w3.org/2000/svg"
 width="600.000000pt" height="600.000000pt" viewBox="0 0 600.000000 600.000000"
 preserveAspectRatio="xMidYMid meet">

<g transform="translate(0.000000,600.000000) scale(0.100000,-0.100000)"
fill="#000000" stroke="none">
<path d="M2731 5030 c-335 -35 -728 -121 -952 -210 -325 -129 -625 -359 -711
-545 l-23 -50 -2 -740 c-1 -507 3 -823 12 -1005 8 -146 17 -350 20 -455 11
-337 25 -516 45 -561 42 -97 280 -251 514 -333 322 -113 732 -171 1217 -171
367 0 642 26 979 91 514 100 766 196 920 349 107 106 154 202 185 378 34 188
36 1111 5 1907 -24 620 -46 716 -205 884 -210 221 -584 363 -1180 447 -138 19
-683 28 -824 14z m724 -65 c363 -42 701 -127 942 -240 317 -149 426 -308 337
-495 -102 -216 -397 -379 -866 -479 -363 -78 -654 -107 -983 -98 -676 18
-1221 159 -1605 415 -60 40 -113 83 -123 100 -39 69 -13 134 101 254 197 206
522 367 946 468 199 47 342 69 636 94 93 8 480 -4 615 -19z m-1640 -1914 c79
-28 226 -71 327 -96 160 -41 200 -48 318 -52 117 -4 145 -2 210 17 106 30 130
34 130 22 0 -6 -37 -25 -82 -42 -149 -58 -325 -53 -600 16 -214 54 -468 149
-468 175 0 15 17 11 165 -40z m420 -720 c337 -62 514 -76 753 -60 120 8 177 8
184 1 48 -48 -410 -73 -687 -38 -230 30 -645 130 -645 156 0 17 27 16 130 -7
58 -12 177 -36 265 -52z m1965 -344 c0 -45 -315 -110 -659 -137 -74 -5 -160
-10 -191 -10 -71 0 -160 25 -160 46 0 11 8 13 43 7 72 -13 346 -7 482 11 72 9
207 34 300 56 202 46 185 43 185 27z m-2065 -244 c89 -13 191 -17 397 -17 180
-1 277 -5 275 -11 -6 -18 -81 -25 -302 -25 -238 -1 -515 27 -542 53 -11 12 9
27 30 22 12 -3 76 -12 142 -22z m2515 -22 c0 -28 -142 -98 -275 -136 -230 -66
-545 -115 -545 -85 0 11 -6 10 190 45 171 31 470 114 555 155 67 32 75 34 75
21z"/>
<path d="M2286 4809 c-47 -37 -28 -64 24 -34 14 8 44 14 67 15 23 0 45 5 49
11 20 34 -99 41 -140 8z"/>
<path d="M2805 4784 c-287 -32 -597 -141 -713 -253 -59 -57 -108 -149 -118
-222 -26 -187 181 -369 506 -446 93 -22 134 -26 356 -30 494 -10 689 29 840
169 172 161 199 393 63 542 -82 90 -268 175 -479 217 -93 19 -364 33 -455 23z
m390 -49 c220 -35 438 -126 517 -214 155 -172 63 -460 -184 -576 -126 -59
-186 -67 -540 -72 -356 -6 -448 3 -612 58 -169 56 -313 164 -351 263 -47 123
21 273 166 367 106 67 338 146 515 173 121 19 377 20 489 1z"/>
<path d="M2785 4689 c-271 -23 -569 -145 -659 -268 -76 -103 -71 -185 15 -277
60 -62 148 -111 290 -158 159 -54 274 -70 489 -70 346 -1 581 53 698 159 51
45 100 142 109 212 12 105 -32 184 -140 254 -151 98 -546 171 -802 148z m295
-44 c342 -46 540 -125 594 -239 27 -56 21 -143 -14 -212 -35 -70 -54 -90 -133
-137 -195 -118 -725 -143 -1045 -51 -169 49 -318 138 -358 215 -19 37 -18 93
2 135 24 51 111 124 195 166 244 119 493 159 759 123z"/>
<path d="M2927 4584 c-4 -4 -7 -16 -7 -26 0 -14 6 -19 23 -16 14 2 22 10 22
23 0 20 -25 32 -38 19z"/>
<path d="M3267 4524 c-15 -15 -7 -45 11 -42 9 2 17 12 17 22 0 20 -16 31 -28
20z"/>
<path d="M2483 4494 c-3 -8 2 -23 11 -32 15 -15 17 -15 33 0 13 14 14 20 3 32
-16 20 -39 20 -47 0z"/>
<path d="M2652 4458 c2 -15 10 -23 23 -23 13 0 21 8 23 23 3 18 -1 22 -23 22
-22 0 -26 -4 -23 -22z"/>
<path d="M2954 4415 c-8 -19 3 -35 26 -35 19 0 30 17 23 38 -6 17 -42 15 -49
-3z"/>
<path d="M3454 4415 c-4 -10 -1 -21 7 -26 20 -12 34 -5 34 17 0 24 -33 31 -41
9z"/>
<path d="M3183 4384 c-8 -22 18 -37 36 -20 7 8 10 19 7 25 -10 16 -36 13 -43
-5z"/>
<path d="M2405 4360 c-3 -5 -3 -19 0 -31 10 -31 60 -23 60 11 0 20 -6 26 -27
28 -14 2 -29 -2 -33 -8z"/>
<path d="M3292 4337 c-10 -11 -9 -17 3 -27 24 -20 45 4 24 26 -14 13 -17 13
-27 1z"/>
<path d="M3607 4313 c-4 -3 -7 -15 -7 -25 0 -22 26 -24 34 -2 10 25 -10 45
-27 27z"/>
<path d="M2280 4295 c-11 -13 -11 -19 3 -32 21 -21 49 -9 45 19 -4 28 -30 35
-48 13z"/>
<path d="M2875 4300 c-9 -15 4 -30 26 -30 12 0 19 7 19 20 0 21 -33 29 -45 10z"/>
<path d="M3470 4244 c-9 -10 -10 -18 -2 -26 12 -12 32 -2 32 17 0 21 -16 26
-30 9z"/>
<path d="M2610 4235 c-15 -18 -6 -45 13 -45 8 0 20 7 27 15 10 12 10 18 0 30
-16 19 -24 19 -40 0z"/>
<path d="M2703 4174 c-3 -8 2 -23 11 -32 14 -15 18 -15 31 -1 9 9 13 23 9 32
-8 21 -43 22 -51 1z"/>
<path d="M3131 4181 c-19 -12 -6 -41 18 -41 27 0 34 15 15 34 -18 19 -15 18
-33 7z"/>
<path d="M2427 4153 c-15 -14 -7 -43 12 -43 26 0 36 17 21 35 -14 16 -23 19
-33 8z"/>
<path d="M3370 4121 c0 -12 6 -21 16 -21 9 0 14 7 12 17 -5 25 -28 28 -28 4z"/>
<path d="M2951 4041 c-15 -27 9 -46 34 -27 16 12 17 16 6 30 -18 21 -28 20
-40 -3z"/>
<path d="M3720 4783 c-55 -20 -67 -80 -22 -111 31 -22 86 -42 113 -42 36 0 18
17 -43 41 -49 18 -64 29 -66 46 -7 48 100 55 180 13 46 -24 58 -25 58 -5 0 25
-97 65 -155 64 -27 0 -57 -3 -65 -6z"/>
<path d="M4136 4471 c-39 -26 -62 -65 -81 -136 -19 -74 -19 -115 -1 -115 8 0
16 17 20 46 12 94 68 184 113 184 53 0 53 -87 1 -203 -34 -75 -32 -93 6 -52
36 39 66 126 66 191 0 45 -4 59 -25 79 -29 30 -60 32 -99 6z"/>
<path d="M1715 4386 c-72 -32 -185 -165 -185 -218 0 -28 18 -21 36 14 21 41
111 136 146 154 37 19 58 18 58 -4 0 -37 -105 -173 -155 -200 -16 -9 -17 -13
-8 -23 23 -24 76 14 141 100 73 96 84 132 51 167 -25 27 -41 29 -84 10z"/>
<path d="M4512 4369 c-35 -23 -68 -74 -53 -83 4 -3 17 4 27 15 22 25 66 49 89
49 32 0 27 -31 -15 -85 -24 -31 -41 -58 -38 -60 21 -21 108 81 108 125 0 57
-59 76 -118 39z"/>
<path d="M3790 4031 c-113 -35 -150 -103 -90 -163 28 -28 35 -30 85 -26 30 3
62 11 71 19 15 12 9 15 -57 19 l-74 5 0 34 c0 38 26 63 86 84 19 7 37 17 39
22 6 13 -27 16 -60 6z"/>
<path d="M1834 4011 c-42 -19 -54 -36 -54 -75 0 -28 18 -46 47 -46 29 0 29 7
1 29 l-22 18 27 27 c33 33 64 34 79 1 14 -30 38 -33 38 -5 0 23 -42 70 -62 70
-7 0 -31 -9 -54 -19z"/>
</g>
</svg>
