<?xml version="1.0" standalone="no"?>
<!DOCTYPE svg PUBLIC "-//W3C//DTD SVG 20010904//EN"
 "http://www.w3.org/TR/2001/REC-SVG-20010904/DTD/svg10.dtd">
<svg version="1.0" xmlns="http://www.w3.org/2000/svg"
 width="512.000000pt" height="512.000000pt" viewBox="0 0 512.000000 512.000000"
 preserveAspectRatio="xMidYMid meet">

<g transform="translate(0.000000,512.000000) scale(0.100000,-0.100000)"
fill="#000000" stroke="none">
<path d="M2105 5094 c-774 -84 -1458 -358 -1811 -726 -236 -246 -329 -523
-265 -793 26 -108 100 -264 171 -357 274 -361 861 -651 1583 -783 301 -55 365
-60 782 -60 347 0 408 3 550 22 751 103 1365 359 1708 709 104 108 150 172
207 289 104 215 115 398 38 613 -80 220 -308 464 -601 641 -112 67 -344 179
-471 226 -300 111 -688 193 -1061 225 -173 14 -674 11 -830 -6z m935 -458
c658 -93 1116 -301 1302 -591 63 -98 89 -173 95 -276 6 -100 -6 -166 -49 -256
-92 -197 -325 -377 -654 -506 -180 -71 -457 -132 -746 -163 -190 -21 -668 -24
-838 -6 -591 66 -1003 216 -1244 456 -119 118 -189 246 -217 397 -26 142 40
314 174 456 166 174 420 306 768 397 204 54 309 72 629 110 91 11 670 -3 780
-18z"/>
<path d="M2410 4345 c0 -3 147 -270 326 -594 l326 -588 101 18 c131 22 401 90
416 105 7 7 -563 1026 -579 1034 -36 19 -590 43 -590 25z"/>
<path d="M1935 4295 c-134 -25 -171 -34 -297 -72 -49 -14 -88 -30 -88 -35 0
-16 565 -1028 576 -1032 26 -10 367 -27 476 -24 l118 3 -324 583 c-178 321
-328 587 -332 592 -5 4 -63 -3 -129 -15z"/>
<path d="M3420 4234 c0 -9 432 -788 445 -802 9 -10 23 -4 71 31 226 166 250
325 76 489 -107 101 -269 188 -470 254 -105 35 -122 38 -122 28z"/>
<path d="M1183 4011 c-164 -116 -225 -253 -164 -370 48 -93 202 -211 388 -298
103 -48 269 -106 290 -101 8 2 -69 151 -211 406 -123 221 -226 405 -228 407
-3 3 -36 -17 -75 -44z"/>
<path d="M2 2631 c-3 -203 1 -365 8 -429 21 -190 81 -347 184 -480 72 -94 224
-231 360 -326 71 -49 137 -103 147 -120 27 -44 25 -114 -3 -156 -38 -55 -73
-75 -131 -75 -45 1 -63 8 -127 49 -127 82 -221 157 -326 258 -55 54 -104 98
-108 98 -3 0 -4 -30 -1 -67 25 -271 112 -452 319 -658 127 -126 228 -202 401
-298 360 -201 887 -350 1425 -403 213 -21 725 -15 930 10 699 88 1288 308
1650 618 174 149 293 326 356 533 l28 90 4 460 3 459 -98 -95 c-200 -193 -423
-339 -730 -475 -162 -72 -469 -174 -523 -174 -109 0 -186 109 -145 206 27 65
50 81 174 120 265 82 560 216 744 336 343 226 529 485 573 803 l7 50 -89 -85
c-454 -437 -1080 -698 -1890 -789 -652 -74 -1251 -32 -1824 125 -499 138 -903
353 -1215 647 l-100 94 -3 -326z m1703 -930 c48 -22 69 -44 91 -96 31 -76 -4
-168 -80 -204 -130 -64 -268 41 -242 184 9 45 50 93 101 116 51 23 80 23 130
0z m-449 -520 c109 -49 135 -189 50 -269 -84 -80 -217 -59 -265 42 -34 70 -25
134 27 190 53 56 117 69 188 37z m2874 -174 c30 -16 51 -37 67 -67 70 -132
-45 -278 -188 -240 -86 24 -144 120 -120 202 33 109 143 157 241 105z"/>
</g>
</svg>
