<?xml version="1.0" standalone="no"?>
<!DOCTYPE svg PUBLIC "-//W3C//DTD SVG 20010904//EN"
 "http://www.w3.org/TR/2001/REC-SVG-20010904/DTD/svg10.dtd">
<svg version="1.0" xmlns="http://www.w3.org/2000/svg"
 width="64.000000pt" height="64.000000pt" viewBox="0 0 64.000000 64.000000"
 preserveAspectRatio="xMidYMid meet">

<g transform="translate(0.000000,64.000000) scale(0.100000,-0.100000)"
fill="#000000" stroke="none">
<path d="M243 613 c-54 -5 -56 -23 -4 -23 22 0 43 -4 46 -10 4 -6 -28 -10 -89
-10 -57 0 -96 4 -96 10 0 6 18 10 40 10 22 0 40 5 40 11 0 6 -19 9 -47 7 l-48
-3 0 -45 0 -45 212 -8 c116 -4 235 -4 265 1 53 7 53 7 56 46 2 21 0 42 -5 46
-9 9 -308 20 -370 13z m152 -53 c38 -38 38 -40 15 -40 -14 0 -44 18 -70 40
l-45 39 30 1 c23 0 41 -10 70 -40z m85 0 l45 -39 -30 -1 c-23 0 -41 10 -70 40
-38 38 -38 40 -15 40 14 0 44 -18 70 -40z m120 20 c0 -5 -24 -10 -54 -10 -30
0 -58 5 -61 10 -4 6 17 10 54 10 34 0 61 -4 61 -10z m-265 -40 c4 -6 -37 -10
-114 -10 -74 0 -121 4 -121 10 0 6 45 10 114 10 66 0 117 -4 121 -10z m265 0
c0 -5 -13 -10 -29 -10 -17 0 -33 5 -36 10 -4 6 8 10 29 10 20 0 36 -4 36 -10z"/>
<path d="M27 473 c-11 -11 -8 -203 3 -203 6 0 10 38 10 95 l0 95 134 0 c79 0
137 -4 141 -10 4 -6 -40 -10 -124 -10 l-131 0 0 -190 0 -190 165 0 c103 0 165
4 165 10 0 6 -58 10 -155 10 l-155 0 0 170 0 170 94 0 95 0 3 -47 3 -48 85 -3
c47 -2 89 -7 94 -12 7 -7 1 -10 -15 -10 -14 0 -30 -5 -37 -12 -9 -9 -15 -9
-24 0 -17 17 -84 15 -102 -4 -22 -22 -22 -146 0 -168 18 -19 85 -21 102 -4 9
9 15 9 24 0 17 -17 84 -15 102 4 11 10 16 34 16 71 0 55 0 56 20 38 16 -14 20
-31 20 -82 l0 -63 -75 0 c-43 0 -75 -4 -75 -10 0 -6 35 -10 85 -10 l85 0 0 61
c0 37 4 58 10 54 6 -3 10 -35 10 -71 l0 -64 -280 0 -280 0 0 105 c0 66 -4 105
-10 105 -7 0 -10 -40 -8 -112 l3 -113 295 0 295 0 0 225 0 225 -291 3 c-160 1
-293 -1 -297 -5z m408 -23 c4 -6 -11 -10 -39 -10 -25 0 -48 5 -51 10 -4 6 11
10 39 10 25 0 48 -4 51 -10z m165 -61 c0 -44 -4 -68 -10 -64 -5 3 -10 31 -10
61 l0 54 -54 0 c-30 0 -58 5 -61 10 -4 6 20 10 64 10 l71 0 0 -71z m-242 19
c7 -7 12 -25 12 -40 0 -26 -3 -28 -40 -28 l-40 0 0 40 c0 37 2 40 28 40 15 0
33 -5 40 -12z m130 -10 l25 -23 -6 23 c-4 19 -1 22 24 22 25 0 29 -4 29 -29 0
-25 -3 -28 -22 -24 l-23 6 23 -25 c18 -20 23 -35 20 -67 l-3 -42 -90 91 -90
90 45 0 c31 0 51 -6 68 -22z m-78 -43 c10 -12 10 -15 -4 -15 -9 0 -16 7 -16
15 0 8 2 15 4 15 2 0 9 -7 16 -15z m190 -111 c0 -28 -4 -43 -10 -39 -5 3 -10
26 -10 51 0 28 4 43 10 39 6 -3 10 -26 10 -51z m-222 9 c3 -21 0 -23 -47 -23
-43 0 -51 3 -51 18 0 28 10 33 55 30 33 -2 41 -7 43 -25z m54 11 c-24 -17 -39
-14 -27 5 3 6 16 11 28 11 l21 0 -22 -16z m67 -6 c0 -7 -23 -27 -50 -45 -48
-31 -50 -31 -47 -10 2 13 19 30 43 44 46 26 55 28 54 11z m1 -55 c0 -10 -18
-29 -43 -43 -57 -34 -57 -34 -57 -16 0 9 21 30 47 46 55 35 53 35 53 13z
m-122 -35 l-3 -43 -45 0 c-39 0 -45 3 -48 23 -3 20 1 22 37 22 23 0 41 5 41
10 0 6 -18 10 -40 10 -22 0 -40 5 -40 10 0 6 23 10 51 10 l50 0 -3 -42z m120
-25 c-2 -11 -14 -19 -33 -21 l-29 -4 24 21 c31 25 42 26 38 4z"/>
<path d="M310 380 c0 -5 9 -10 20 -10 11 0 20 5 20 10 0 6 -9 10 -20 10 -11 0
-20 -4 -20 -10z"/>
<path d="M440 392 c0 -14 89 -96 97 -89 4 4 -13 28 -37 52 -42 43 -60 54 -60
37z"/>
<path d="M116 344 c-19 -18 -21 -85 -4 -102 9 -9 9 -15 0 -24 -17 -17 -15 -84
4 -102 20 -21 88 -21 108 0 19 18 21 85 4 102 -9 9 -9 15 0 24 17 17 15 84 -4
102 -20 21 -88 21 -108 0z m99 -54 l0 -45 -45 0 c-44 0 -45 1 -48 33 -5 54 2
64 50 60 l43 -3 0 -45z m0 -120 l0 -45 -45 0 c-44 0 -45 1 -48 33 -5 54 2 64
50 60 l43 -3 0 -45z"/>
<path d="M144 306 c-10 -26 4 -48 28 -44 33 4 33 52 0 56 -13 2 -25 -3 -28
-12z m36 -16 c0 -5 -4 -10 -10 -10 -5 0 -10 5 -10 10 0 6 5 10 10 10 6 0 10
-4 10 -10z"/>
<path d="M144 186 c-10 -26 4 -48 28 -44 17 2 23 10 23 28 0 18 -6 26 -23 28
-13 2 -25 -3 -28 -12z m36 -16 c0 -5 -4 -10 -10 -10 -5 0 -10 5 -10 10 0 6 5
10 10 10 6 0 10 -4 10 -10z"/>
</g>
</svg>
