<?xml version="1.0" standalone="no"?>
<!DOCTYPE svg PUBLIC "-//W3C//DTD SVG 20010904//EN"
 "http://www.w3.org/TR/2001/REC-SVG-20010904/DTD/svg10.dtd">
<svg version="1.0" xmlns="http://www.w3.org/2000/svg"
 width="64.000000pt" height="64.000000pt" viewBox="0 0 64.000000 64.000000"
 preserveAspectRatio="xMidYMid meet">

<g transform="translate(0.000000,64.000000) scale(0.100000,-0.100000)"
fill="#000000" stroke="none">
<path d="M210 606 c-117 -34 -184 -107 -166 -180 28 -114 236 -178 407 -127
78 24 149 95 149 151 0 56 -70 127 -149 151 -56 17 -190 20 -241 5z m236 -83
c22 -11 46 -32 54 -46 61 -109 -234 -176 -340 -77 -17 15 -30 38 -30 50 0 29
51 75 97 89 58 16 174 8 219 -16z"/>
<path d="M227 516 c-78 -28 -96 -71 -46 -108 25 -19 28 -19 60 -3 44 22 77 53
95 87 8 15 14 29 14 33 0 10 -86 4 -123 -9z"/>
<path d="M357 488 c-18 -31 -18 -33 -1 -45 21 -15 73 -26 105 -21 38 5 32 47
-10 75 -47 32 -72 29 -94 -9z"/>
<path d="M287 410 c-29 -22 -34 -29 -21 -34 25 -10 95 -7 139 5 l40 12 -50 14
c-27 8 -54 18 -60 23 -5 4 -27 -5 -48 -20z"/>
<path d="M40 273 c0 -98 3 -114 23 -144 48 -72 127 -104 257 -104 130 0 209
32 257 104 20 30 23 46 23 144 l0 110 -20 -26 c-33 -42 -135 -86 -215 -93
-119 -11 -256 32 -306 94 l-19 25 0 -110z"/>
</g>
</svg>
