<?xml version="1.0" standalone="no"?>
<!DOCTYPE svg PUBLIC "-//W3C//DTD SVG 20010904//EN"
 "http://www.w3.org/TR/2001/REC-SVG-20010904/DTD/svg10.dtd">
<svg version="1.0" xmlns="http://www.w3.org/2000/svg"
 width="471.000000pt" height="43.000000pt" viewBox="0 0 471.000000 43.000000"
 preserveAspectRatio="xMidYMid meet">

<g transform="translate(0.000000,43.000000) scale(0.100000,-0.100000)"
fill="#FFF" stroke="none">
<path d="M3436 388 c-9 -12 -16 -37 -16 -55 l0 -33 -1684 0 c-1190 0 -1687 -3
-1691 -11 -15 -24 95 -108 190 -145 48 -18 97 -19 1618 -22 l1567 -2 0 -30 c0
-16 4 -41 10 -55 8 -22 15 -26 42 -23 32 3 33 5 38 53 l5 50 563 5 564 5 19
24 c27 33 24 84 -5 118 l-24 28 -560 3 -560 3 0 40 c-1 67 -44 93 -76 47z m49
-179 c0 -148 -2 -164 -17 -167 -17 -3 -18 10 -18 161 0 90 3 167 7 171 22 22
28 -10 28 -165z m-117 -1 c2 -46 0 -58 -12 -58 -9 0 -16 12 -18 33 l-3 32
-1540 5 -1540 5 -60 22 -60 21 1615 -1 1615 -2 3 -57z m52 1 c0 -44 -3 -60
-12 -57 -21 7 -18 118 3 118 5 0 9 -27 9 -61z m130 1 c0 -47 -3 -60 -15 -60
-12 0 -15 13 -15 60 0 47 3 60 15 60 12 0 15 -13 15 -60z m118 49 c-2 -6 -8
-10 -13 -10 -5 0 -11 4 -13 10 -2 6 4 11 13 11 9 0 15 -5 13 -11z m90 0 c-2
-6 -8 -10 -13 -10 -5 0 -11 4 -13 10 -2 6 4 11 13 11 9 0 15 -5 13 -11z m96
-4 c-4 -8 -10 -15 -14 -15 -4 0 -10 7 -14 15 -4 10 1 15 14 15 13 0 18 -5 14
-15z m94 3 c-6 -18 -28 -21 -28 -4 0 9 7 16 16 16 9 0 14 -5 12 -12z m90 1
c-2 -6 -8 -10 -13 -10 -5 0 -11 4 -13 10 -2 6 4 11 13 11 9 0 15 -5 13 -11z
m92 -4 c-7 -8 -14 -15 -15 -15 -2 0 -5 7 -9 15 -4 10 1 15 16 15 17 0 18 -2 8
-15z m92 0 c0 -5 -5 -11 -11 -13 -6 -2 -11 4 -11 13 0 9 5 15 11 13 6 -2 11
-8 11 -13z m96 4 c-2 -6 -8 -10 -13 -10 -5 0 -11 4 -13 10 -2 6 4 11 13 11 9
0 15 -5 13 -11z m90 0 c-2 -6 -8 -10 -13 -10 -5 0 -11 4 -13 10 -2 6 4 11 13
11 9 0 15 -5 13 -11z m96 -4 c-4 -8 -10 -15 -15 -15 -5 0 -9 7 -9 15 0 8 7 15
15 15 9 0 12 -6 9 -15z m128 -2 c25 -22 24 -79 -1 -93 -30 -16 -31 -14 -31 50
0 33 3 60 7 60 3 0 15 -7 25 -17z m-1003 -62 c-17 -26 -25 -26 -39 -1 -8 14
-8 26 1 41 11 21 11 21 31 2 17 -18 18 -23 7 -42z m89 39 c13 -21 1 -60 -18
-60 -19 0 -31 39 -18 60 7 11 15 20 18 20 3 0 11 -9 18 -20z m102 -24 c0 -6
-7 -19 -15 -29 -13 -18 -14 -18 -24 2 -14 26 -14 44 1 59 10 10 15 9 25 -5 7
-9 13 -22 13 -27z m86 -10 c-8 -31 -21 -33 -36 -6 -8 14 -8 26 1 41 10 19 13
20 26 6 10 -10 13 -24 9 -41z m92 34 c13 -21 1 -60 -18 -60 -19 0 -31 39 -18
60 7 11 15 20 18 20 3 0 11 -9 18 -20z m102 -26 c0 -6 -7 -17 -16 -25 -13 -10
-17 -10 -25 2 -12 20 -11 43 3 57 10 10 15 9 25 -5 7 -9 13 -22 13 -29z m90 2
c0 -6 -4 -17 -9 -25 -8 -12 -12 -12 -25 -2 -19 16 -21 42 -4 59 10 10 15 9 25
-5 7 -9 13 -22 13 -27z m86 -10 c-8 -31 -21 -33 -36 -6 -8 14 -8 26 1 41 10
19 13 20 26 6 10 -10 13 -24 9 -41z m94 34 c8 -14 8 -26 0 -40 -21 -39 -48
-13 -36 35 8 30 22 32 36 5z m100 -25 c0 -6 -6 -20 -14 -30 -14 -19 -15 -19
-26 6 -9 21 -9 32 0 50 12 22 13 22 26 4 8 -10 14 -24 14 -30z m90 6 c0 -9 -5
-23 -10 -31 -8 -13 -11 -13 -26 2 -15 15 -16 21 -6 44 10 21 15 24 27 14 8 -7
15 -20 15 -29z m-2825 -18 c803 -1 1486 -3 1518 -3 50 0 57 -2 57 -20 0 -20
-2 -20 -1512 -18 l-1513 3 -55 23 c-30 12 -66 31 -79 41 -22 17 -19 17 50 -3
73 -20 91 -20 1534 -23z m2025 -34 c0 -5 -7 -9 -15 -9 -9 0 -12 6 -9 15 6 15
24 11 24 -6z m94 6 c4 -10 -1 -15 -16 -15 -17 0 -18 2 -8 15 7 8 14 15 15 15
2 0 5 -7 9 -15z m186 -6 c0 -5 -7 -9 -15 -9 -9 0 -12 6 -9 15 6 15 24 11 24
-6z m370 6 c10 -13 9 -15 -8 -15 -15 0 -20 5 -16 15 4 8 7 15 9 15 1 0 8 -7
15 -15z m-745 -5 c3 -5 -1 -10 -10 -10 -9 0 -13 5 -10 10 3 6 8 10 10 10 2 0
7 -4 10 -10z m280 0 c3 -5 -1 -10 -9 -10 -9 0 -16 5 -16 10 0 6 4 10 9 10 6 0
13 -4 16 -10z m185 0 c0 -5 -7 -10 -16 -10 -8 0 -12 5 -9 10 3 6 10 10 16 10
5 0 9 -4 9 -10z m95 0 c3 -5 -1 -10 -9 -10 -9 0 -16 5 -16 10 0 6 4 10 9 10 6
0 13 -4 16 -10z m95 0 c0 -5 -7 -10 -15 -10 -8 0 -15 5 -15 10 0 6 7 10 15 10
8 0 15 -4 15 -10z m185 0 c3 -5 -3 -10 -15 -10 -12 0 -18 5 -15 10 3 6 10 10
15 10 5 0 12 -4 15 -10z"/>
</g>
</svg>
