<?xml version="1.0" standalone="no"?>
<!DOCTYPE svg PUBLIC "-//W3C//DTD SVG 20010904//EN"
 "http://www.w3.org/TR/2001/REC-SVG-20010904/DTD/svg10.dtd">
<svg version="1.0" xmlns="http://www.w3.org/2000/svg"
 width="640.000000pt" height="719.000000pt" viewBox="0 0 640.000000 719.000000"
 preserveAspectRatio="xMidYMid meet">

<g transform="translate(0.000000,719.000000) scale(0.100000,-0.100000)"
fill="#000000" stroke="none">
<path d="M4773 7161 c-87 -40 -203 -131 -203 -158 0 -8 12 -41 26 -75 16 -39
23 -70 19 -86 -6 -23 -9 -24 -56 -19 -56 7 -57 5 -32 -66 23 -64 7 -126 -45
-180 -25 -26 -36 -45 -34 -61 2 -13 -6 -59 -18 -102 -11 -43 -23 -106 -26
-139 -6 -56 -4 -63 25 -102 23 -32 38 -43 57 -43 26 0 38 -10 107 -94 l23 -29
180 120 c98 65 249 164 333 218 l155 100 -132 3 c-126 2 -133 4 -147 26 -16
25 -12 49 13 79 14 15 12 27 -16 120 -17 57 -41 170 -52 257 -16 115 -26 158
-38 168 -9 7 -22 27 -28 45 -13 40 -50 46 -111 18z"/>
<path d="M3047 7104 c46 -20 59 -46 82 -167 25 -128 26 -170 6 -187 -21 -17
-19 -46 7 -80 15 -20 23 -49 26 -87 4 -54 2 -60 -27 -87 -23 -23 -31 -38 -31
-65 0 -50 12 -64 56 -67 21 -2 42 -8 48 -14 6 -6 13 -46 16 -88 5 -75 6 -77
35 -85 17 -5 51 -17 77 -27 61 -23 84 -12 122 59 27 51 29 53 65 48 25 -3 75
8 163 35 145 45 213 86 205 121 -3 12 -14 65 -26 116 -12 52 -29 111 -39 130
-17 33 -24 37 -73 42 -30 4 -74 16 -99 28 -25 11 -51 21 -58 21 -7 0 -40 24
-73 52 -51 45 -59 57 -59 88 0 49 -6 55 -85 91 -89 41 -346 139 -360 138 -5 0
4 -7 22 -15z"/>
<path d="M2054 6688 c-21 -35 -46 -74 -56 -87 -10 -13 -18 -35 -18 -50 0 -14
-14 -55 -30 -90 -24 -50 -30 -76 -28 -113 l3 -49 145 -65 c311 -141 453 -204
462 -204 19 0 71 47 88 81 10 19 25 41 34 48 13 11 -3 31 -119 147 -74 74
-135 141 -135 149 0 8 -24 32 -54 54 -30 22 -57 49 -60 59 -5 16 -152 157
-183 175 -7 5 -25 -16 -49 -55z"/>
<path d="M5501 6515 c-53 -10 -86 -22 -115 -44 -23 -17 -129 -88 -236 -158
-239 -156 -279 -184 -280 -201 0 -8 25 -57 55 -109 30 -53 57 -115 60 -137 7
-44 -9 -157 -27 -189 -5 -10 -11 -54 -12 -98 l-3 -79 94 0 93 0 113 -59 c61
-32 126 -65 142 -74 17 -9 73 -36 125 -61 l95 -45 130 -4 c119 -3 137 -6 208
-35 97 -40 107 -40 107 -3 0 21 9 36 33 53 23 18 36 40 45 74 14 51 36 84 58
84 7 0 17 22 23 53 6 28 19 95 30 148 18 93 44 148 95 206 11 13 18 25 15 27
-12 11 -226 146 -277 174 -78 44 -351 287 -379 338 -11 21 -27 59 -33 84 -20
77 -26 79 -159 55z"/>
<path d="M2934 6253 c-77 -72 -145 -137 -153 -146 -12 -15 -16 -15 -42 -2 -39
21 -66 19 -79 -6 -7 -11 -27 -38 -46 -59 -42 -47 -36 -53 68 -68 103 -15 209
-58 343 -137 62 -37 121 -65 136 -65 20 0 38 13 67 46 54 60 184 254 180 266
-4 10 -78 38 -155 58 -48 12 -54 23 -62 120 l-6 65 -39 6 c-24 4 -46 15 -56
29 l-18 23 -138 -130z"/>
<path d="M4045 6365 c-16 -8 -54 -14 -82 -15 l-53 0 0 -37 c0 -23 -7 -45 -20
-58 -17 -18 -23 -47 -34 -177 -7 -86 -17 -161 -20 -167 -4 -6 -18 -11 -32 -11
-20 0 -24 -5 -24 -28 0 -18 -11 -38 -30 -57 -16 -16 -30 -34 -30 -41 0 -12 65
-43 159 -75 42 -15 84 -19 190 -19 l137 0 44 46 c25 25 104 91 177 145 72 54
135 103 138 109 15 24 -49 101 -95 115 -35 10 -57 32 -96 93 -30 46 -44 57
-109 87 -42 19 -95 50 -119 70 -47 38 -56 40 -101 20z"/>
<path d="M3821 6290 c-13 -11 -38 -20 -56 -20 -17 0 -58 -9 -91 -21 -32 -12
-83 -24 -113 -27 l-53 -7 -43 -97 c-24 -53 -62 -123 -84 -157 -23 -33 -41 -64
-41 -70 0 -5 73 -33 162 -62 l161 -52 39 42 c32 34 39 47 34 68 -8 29 8 53 34
53 32 0 39 24 50 166 9 109 16 145 31 166 10 15 19 30 19 33 0 11 -26 3 -49
-15z"/>
<path d="M1909 6200 c-15 -49 -15 -51 5 -62 12 -6 183 -87 381 -179 341 -159
360 -170 363 -196 2 -16 -22 -108 -52 -205 -63 -204 -72 -243 -57 -252 6 -4
63 -27 127 -51 135 -51 132 -52 231 38 83 76 110 93 225 141 120 50 124 57 78
139 -17 30 -34 74 -38 98 -7 39 -13 47 -52 68 -25 13 -82 45 -126 72 -132 79
-269 129 -356 129 -19 0 -89 28 -172 69 -142 70 -521 241 -535 241 -4 0 -14
-23 -22 -50z"/>
<path d="M1816 6073 c6 -54 4 -61 -24 -96 -23 -29 -32 -52 -37 -95 -3 -31 -11
-92 -17 -135 -10 -67 -9 -84 6 -135 24 -75 49 -124 86 -166 l30 -34 138 -4
c124 -4 150 -8 277 -45 187 -54 189 -54 208 -40 16 13 126 343 134 406 l5 37
-103 48 c-267 125 -691 316 -699 316 -6 0 -7 -24 -4 -57z"/>
<path d="M4644 5978 c-209 -146 -298 -215 -361 -277 -30 -30 -61 -52 -75 -52
-12 -1 -75 -4 -138 -8 l-115 -6 -3 -94 c-1 -52 1 -98 5 -102 9 -8 252 33 296
50 43 17 74 14 80 -8 3 -11 0 -53 -6 -93 -11 -81 -14 -64 58 -332 19 -71 36
-130 38 -132 2 -3 27 3 55 12 l51 17 3 91 3 91 36 18 c29 14 39 26 49 62 10
36 18 46 49 58 45 18 196 55 256 64 54 7 57 20 15 81 -28 41 -29 50 -29 140 1
67 7 115 20 155 28 85 25 153 -10 220 -43 82 -94 157 -107 157 -6 0 -83 -50
-170 -112z"/>
<path d="M3284 5818 c-92 -98 -96 -122 -39 -233 25 -49 45 -98 43 -109 -2 -15
-33 -31 -123 -68 -65 -27 -140 -64 -165 -83 -50 -37 -97 -84 -102 -102 -2 -6
22 -30 52 -53 30 -22 64 -58 76 -78 23 -41 3 -36 254 -61 63 -7 157 -21 209
-31 112 -24 155 -25 174 -6 9 9 16 47 20 106 6 102 18 125 71 138 19 5 32 16
34 28 9 58 12 63 55 75 64 19 67 26 67 175 l0 133 -57 22 c-53 19 -529 179
-536 179 -2 0 -17 -15 -33 -32z"/>
<path d="M4997 5463 c-17 -3 -27 -9 -24 -16 3 -7 16 -35 28 -63 28 -66 22 -84
-30 -84 -55 0 -194 -28 -256 -51 -48 -18 -53 -23 -66 -67 -12 -39 -19 -49 -46
-56 -37 -11 -43 -27 -43 -113 0 -34 -3 -68 -6 -77 -3 -8 -27 -22 -54 -31 -58
-19 -84 -45 -75 -74 8 -27 60 -65 107 -80 49 -16 64 -37 143 -194 37 -73 74
-140 83 -149 43 -43 359 -208 399 -208 32 0 559 123 568 132 4 3 26 82 50 174
l44 168 -18 73 -19 74 21 19 21 20 -22 0 c-17 0 -22 6 -22 28 0 15 -5 33 -12
40 -9 9 -9 15 0 24 7 7 12 22 12 34 0 27 15 39 93 79 155 79 151 77 131 92
-11 8 -57 26 -104 41 -74 23 -99 27 -190 24 -104 -2 -104 -2 -195 40 -49 24
-130 64 -180 91 -206 109 -254 125 -338 110z"/>
<path d="M4245 5449 c-16 -5 -81 -18 -144 -29 -131 -24 -145 -30 -166 -70 -11
-21 -25 -31 -50 -36 -38 -7 -49 -17 -60 -54 -10 -33 -34 -60 -54 -60 -39 -1
-46 -17 -51 -117 -5 -84 -9 -103 -30 -133 -22 -31 -25 -44 -23 -115 2 -44 8
-116 15 -160 7 -44 12 -109 13 -145 0 -61 -2 -65 -24 -68 -13 -2 -87 17 -165
41 -187 60 -183 59 -190 49 -3 -5 10 -78 29 -162 19 -85 35 -168 35 -187 0
-49 -25 -67 -120 -86 -68 -14 -90 -23 -116 -48 -33 -32 -35 -53 -7 -63 8 -4
52 9 97 29 97 42 162 61 236 70 80 10 331 69 440 104 52 16 144 37 205 46 60
8 152 29 203 45 81 26 107 30 212 30 117 0 190 15 190 38 0 14 -130 284 -151
314 -12 16 -37 33 -61 40 -23 7 -58 28 -78 48 -32 30 -38 43 -44 94 -8 69 -57
281 -81 346 -12 33 -16 71 -13 144 2 61 -1 100 -7 102 -5 1 -23 -2 -40 -7z"/>
<path d="M1875 5368 c-89 -30 -88 -28 -49 -139 19 -53 27 -95 28 -149 0 -67
-3 -82 -33 -139 -36 -70 -50 -157 -33 -202 10 -24 15 -26 101 -32 110 -8 234
-32 280 -55 19 -9 48 -33 63 -53 26 -32 30 -49 39 -140 13 -128 25 -176 47
-187 9 -5 51 -12 92 -15 46 -4 113 -20 175 -42 97 -34 184 -45 212 -27 43 27
59 229 28 349 -8 31 -15 80 -15 109 0 55 48 225 108 382 l35 94 -29 24 c-31
26 -35 27 -134 42 -36 5 -112 28 -169 51 -65 26 -119 41 -146 41 -24 0 -93 15
-153 34 -60 19 -143 42 -185 50 -84 18 -216 19 -262 4z"/>
<path d="M2972 5067 c-17 -20 -121 -335 -128 -389 -4 -30 1 -79 16 -146 17
-78 21 -125 18 -214 l-3 -112 69 -52 c38 -29 84 -60 102 -70 l32 -18 36 32
c20 17 53 35 73 40 159 39 148 34 151 73 2 20 -10 95 -26 165 -43 186 -44 191
-26 209 9 8 21 15 27 15 7 0 86 -23 175 -51 92 -29 168 -47 172 -43 5 5 0 67
-10 139 -11 72 -20 166 -20 211 l0 80 -142 27 c-79 15 -197 31 -263 37 -188
16 -210 22 -228 56 -11 21 -15 23 -25 11z"/>
<path d="M1755 4637 c-73 -50 -112 -94 -152 -169 -31 -59 -42 -71 -87 -93 -30
-14 -84 -29 -131 -35 -131 -16 -177 -27 -240 -56 -59 -27 -63 -28 -235 -26
-150 2 -185 0 -245 -18 -95 -27 -178 -26 -262 5 -72 26 -108 58 -178 160 -18
28 -52 67 -74 89 l-40 39 -38 -16 c-21 -8 -46 -25 -55 -38 -17 -23 -17 -29 16
-174 41 -179 112 -465 118 -470 2 -3 60 9 128 25 69 16 135 30 147 30 13 0 46
9 75 20 112 42 142 23 157 -98 5 -39 16 -81 25 -94 9 -12 16 -39 16 -60 0 -29
6 -41 26 -55 23 -14 25 -22 21 -56 -5 -38 -3 -40 94 -137 l99 -99 59 24 c32
14 97 34 145 46 113 28 211 92 243 160 12 26 36 58 53 73 39 32 127 59 199 60
l55 1 19 -50 c29 -78 36 -82 94 -51 26 15 82 53 123 84 l75 57 5 65 c4 58 7
65 28 68 12 2 73 -17 135 -42 169 -68 159 -68 204 1 38 58 38 58 96 63 l58 5
32 60 c31 57 34 60 66 57 38 -3 70 22 117 89 35 50 27 69 -29 69 -24 0 -83 14
-132 30 -50 17 -127 35 -174 40 -132 15 -154 40 -166 190 -9 118 -20 151 -57
187 -44 42 -125 63 -268 69 l-115 6 -50 -35z"/>
<path d="M4725 4322 c-43 -22 -63 -24 -184 -26 -120 -2 -145 -6 -211 -30 -41
-15 -126 -34 -190 -42 -63 -9 -155 -29 -205 -46 -49 -16 -166 -48 -260 -69
-93 -22 -187 -44 -209 -50 l-39 -10 7 -52 c3 -29 14 -83 23 -122 l18 -69 355
-203 c195 -112 405 -228 465 -259 l110 -55 155 -4 c85 -3 202 -10 258 -15 72
-8 133 -8 195 -1 90 10 192 35 212 51 6 5 68 28 138 51 80 26 132 49 138 60
11 21 193 745 203 807 4 31 3 42 -6 42 -7 0 -128 -27 -268 -60 -140 -33 -265
-60 -277 -60 -24 0 -125 48 -289 137 l-91 50 -48 -25z"/>
<path d="M2795 4099 c-47 -84 -110 -145 -158 -154 -29 -6 -38 -14 -58 -58 -23
-50 -25 -52 -69 -55 -77 -4 -87 -9 -110 -56 -32 -68 -40 -71 -113 -51 -34 10
-101 34 -149 55 l-87 37 -3 -56 -3 -56 -81 -65 c-45 -36 -107 -80 -137 -98
-51 -31 -58 -33 -84 -20 -18 8 -37 32 -53 65 -28 60 -43 64 -135 39 -75 -20
-92 -32 -125 -89 -43 -74 -48 -80 -117 -125 -40 -25 -93 -48 -145 -61 -46 -12
-111 -33 -146 -47 -34 -13 -76 -24 -92 -24 -17 0 -30 -3 -30 -8 0 -19 61 -255
74 -287 10 -23 26 -39 49 -49 19 -7 38 -19 42 -26 8 -13 -39 -88 -60 -97 -8
-3 -12 -9 -9 -14 11 -19 38 -7 89 39 77 71 383 262 418 262 37 0 189 -82 243
-131 51 -46 110 -56 248 -42 81 9 101 15 153 47 56 34 68 37 174 46 63 5 247
10 409 10 287 1 298 2 400 28 90 23 105 30 108 49 2 12 -25 131 -59 264 l-62
242 23 17 c12 9 76 48 142 85 65 38 125 76 133 85 12 13 11 28 -5 114 -11 54
-22 107 -25 117 -8 24 -17 21 -126 -27 -98 -44 -136 -44 -175 -3 -29 31 -226
169 -241 169 -4 0 -26 -32 -48 -71z"/>
<path d="M3365 3719 c-44 -23 -107 -59 -140 -79 -54 -33 -60 -40 -57 -65 5
-35 253 -981 359 -1365 42 -151 79 -304 84 -340 4 -36 16 -92 26 -125 l19 -60
55 1 c30 1 63 3 74 5 15 3 25 -5 39 -34 18 -38 29 -48 144 -133 60 -44 122
-127 122 -163 0 -8 -21 -59 -46 -114 -61 -133 -63 -153 -29 -229 28 -61 28
-62 21 -212 l-7 -151 37 -38 c30 -31 43 -37 63 -33 14 3 47 9 73 12 52 7 48
12 62 -73 11 -65 34 -103 72 -119 34 -14 42 -14 92 1 38 13 71 16 112 12 42
-5 62 -3 76 8 33 25 60 18 84 -20 12 -19 25 -35 29 -35 13 0 108 -101 146
-154 21 -30 37 -66 41 -95 10 -71 29 -109 58 -117 44 -11 228 14 256 35 25 18
38 67 25 99 -5 13 -12 9 -38 -21 -25 -30 -41 -40 -73 -44 -36 -5 -43 -2 -62
22 -27 34 -28 65 -2 115 23 45 25 63 8 90 -10 16 -9 24 8 46 11 15 37 36 57
47 32 16 37 24 37 53 0 42 11 47 134 63 99 13 118 21 140 53 21 30 20 60 -4
91 -26 33 -26 34 11 52 21 11 43 14 69 10 21 -4 56 -1 79 6 49 15 66 4 75 -45
4 -20 17 -41 31 -50 27 -18 24 -42 -6 -51 -19 -6 -27 -45 -10 -45 5 0 28 15
51 32 32 25 51 54 82 123 23 50 49 99 59 111 11 11 19 32 19 47 0 43 -35 123
-74 168 -40 47 -44 73 -20 108 14 19 22 22 50 16 44 -8 56 16 26 48 -29 31
-72 131 -72 169 0 17 6 39 14 47 8 9 18 32 23 51 7 27 15 36 34 38 34 4 99
-97 99 -155 0 -43 -22 -73 -54 -73 -10 0 -16 -6 -13 -12 2 -7 12 -13 23 -13
13 0 28 18 49 57 l29 56 -22 74 c-12 40 -26 100 -32 132 -5 33 -16 69 -24 81
-30 45 -86 213 -86 256 0 24 -9 62 -19 84 -11 22 -28 72 -39 110 -31 110 -92
277 -112 310 -10 17 -28 56 -40 87 -14 37 -33 67 -56 85 -116 94 -115 93 -112
141 l3 44 65 20 c36 11 69 24 74 29 13 12 -6 50 -50 99 l-37 41 17 57 c10 31
28 76 41 99 l23 43 -36 9 c-142 37 -314 44 -407 16 -47 -14 -80 -16 -165 -12
-136 8 -150 12 -150 47 0 27 -3 28 -57 35 -32 3 -139 9 -238 13 l-180 7 -87
42 c-47 22 -251 135 -454 249 -202 114 -377 209 -388 211 -12 2 -57 -15 -101
-38z"/>
<path d="M1331 2966 c-142 -90 -271 -194 -271 -218 0 -4 16 0 36 8 20 8 55 14
77 12 l42 -3 9 -64 9 -63 -36 -32 c-19 -17 -40 -48 -47 -68 -6 -20 -18 -42
-26 -48 -20 -17 -18 -25 11 -38 45 -20 21 -85 -35 -97 -37 -8 -46 -21 -29 -41
9 -12 27 -15 68 -12 l56 3 3 -42 c2 -23 -2 -52 -9 -65 -9 -16 -9 -23 0 -26 17
-6 14 -33 -9 -77 -18 -36 -18 -40 -4 -56 9 -10 34 -19 57 -21 39 -3 41 -5 58
-53 10 -27 18 -74 18 -102 1 -60 14 -67 39 -22 33 61 48 72 108 85 90 18 346
129 380 165 l29 30 0 362 c0 267 -3 368 -12 383 -8 13 -27 24 -50 29 -21 4
-55 23 -81 45 -40 36 -201 130 -219 130 -5 0 -82 -47 -172 -104z"/>
<path d="M3125 3018 c-71 -18 -123 -21 -480 -27 -429 -7 -429 -7 -496 -61 -18
-16 -54 -26 -125 -36 -54 -7 -105 -14 -112 -14 -11 0 -13 -20 -10 -94 1 -52 6
-97 9 -100 3 -4 72 -1 153 5 80 6 157 8 171 5 16 -4 46 -39 94 -109 100 -146
108 -154 180 -162 73 -8 86 -22 95 -97 10 -96 129 -543 150 -565 8 -8 45 -3
151 23 191 47 590 152 619 164 l25 9 -79 308 c-44 169 -108 412 -142 538 l-63
230 -30 2 c-16 1 -66 -8 -110 -19z"/>
<path d="M2007 2650 c-37 -4 -73 -12 -79 -18 -8 -8 -14 -96 -18 -266 -7 -283
-8 -288 -78 -329 -43 -26 -182 -84 -354 -149 -23 -9 -28 -17 -28 -44 0 -26 8
-39 35 -61 34 -27 45 -56 26 -68 -5 -3 1 -33 15 -67 13 -34 24 -69 24 -79 0
-27 -39 -68 -96 -101 -30 -16 -56 -34 -59 -39 -3 -4 1 -21 9 -37 14 -28 14
-30 -17 -59 -57 -53 -146 -89 -161 -64 -4 5 -24 12 -45 16 -50 8 -83 -8 -79
-38 2 -18 12 -23 45 -28 52 -6 69 -21 77 -62 3 -18 9 -52 13 -77 l8 -45 23 35
c12 19 33 48 46 63 22 28 24 28 53 14 37 -19 148 -57 167 -57 19 0 73 46 81
69 4 13 -4 29 -25 49 -51 51 -31 96 20 47 27 -26 31 -27 74 -16 25 6 61 11 80
11 23 0 43 7 56 20 11 11 31 20 45 20 16 0 45 18 81 50 30 28 67 55 81 61 36
14 63 3 63 -27 0 -27 21 -32 39 -10 6 7 24 16 39 19 16 4 34 18 43 35 13 23
25 30 63 35 65 9 96 28 150 91 l48 56 93 0 c109 0 130 -6 185 -56 41 -37 42
-37 68 -22 40 25 38 43 -7 69 -44 25 -56 45 -94 164 -78 241 -147 509 -147
569 0 50 7 46 -117 76 -46 12 -66 33 -168 188 l-48 72 -81 -1 c-45 -1 -112 -5
-149 -9z"/>
</g>
</svg>
