<?xml version="1.0" standalone="no"?>
<!DOCTYPE svg PUBLIC "-//W3C//DTD SVG 20010904//EN"
 "http://www.w3.org/TR/2001/REC-SVG-20010904/DTD/svg10.dtd">
<svg version="1.0" xmlns="http://www.w3.org/2000/svg"
 width="512.000000pt" height="512.000000pt" viewBox="0 0 512.000000 512.000000"
 preserveAspectRatio="xMidYMid meet">

<g transform="translate(0.000000,512.000000) scale(0.100000,-0.100000)"
fill="#000000" stroke="none">
<path d="M4413 4626 c-64 -21 -88 -42 -302 -270 l-201 -214 -62 14 c-82 17
-139 17 -217 -1 -73 -18 -168 -65 -202 -101 l-22 -24 115 0 c249 0 467 -68
672 -210 77 -53 232 -206 276 -272 14 -21 29 -38 33 -38 14 0 -2 118 -24 187
-11 33 -38 86 -60 118 -21 31 -39 57 -39 59 0 2 76 63 169 135 177 139 213
178 237 257 18 61 18 108 -2 174 -22 75 -109 162 -184 184 -64 19 -129 20
-187 2z"/>
<path d="M3330 3856 c-332 -77 -577 -293 -669 -591 -12 -38 -31 -146 -41 -240
-70 -597 -215 -1027 -454 -1345 -367 -488 -945 -680 -1640 -543 -125 24 -141
25 -165 12 -34 -19 -48 -60 -33 -93 14 -30 141 -134 273 -221 657 -436 1403
-469 2156 -95 511 254 905 597 1330 1155 310 408 457 812 414 1140 -27 204
-118 390 -261 535 -135 136 -281 222 -468 272 -97 26 -356 34 -442 14z"/>
</g>
</svg>
