<?xml version="1.0" standalone="no"?>
<!DOCTYPE svg PUBLIC "-//W3C//DTD SVG 20010904//EN"
 "http://www.w3.org/TR/2001/REC-SVG-20010904/DTD/svg10.dtd">
<svg version="1.0" xmlns="http://www.w3.org/2000/svg"
 width="512.000000pt" height="512.000000pt" viewBox="0 0 512.000000 512.000000"
 preserveAspectRatio="xMidYMid meet">

<g transform="translate(0.000000,512.000000) scale(0.100000,-0.100000)"
fill="#000000" stroke="none">
<path d="M3230 5074 c-949 -23 -1735 -43 -1747 -43 -20 -1 -23 -6 -23 -46 l0
-45 1830 0 1830 0 0 90 0 90 -82 -1 c-46 -1 -859 -21 -1808 -45z"/>
<path d="M1467 4753 c-4 -3 -7 -25 -7 -48 l0 -43 306 -7 c168 -4 307 -5 310
-2 10 10 25 88 19 98 -7 10 -618 13 -628 2z"/>
<path d="M2287 4753 c-3 -5 -8 -33 -12 -63 -4 -30 -21 -100 -37 -155 -57 -194
-57 -351 2 -555 61 -211 61 -399 0 -610 -60 -207 -60 -349 0 -560 18 -60 35
-140 38 -177 l7 -68 93 -3 93 -3 -6 48 c-4 26 -19 95 -35 153 -41 151 -50 210
-50 335 0 129 10 192 52 330 29 93 31 111 31 250 1 113 -4 164 -16 205 -51
164 -59 209 -64 338 -6 147 4 233 42 357 14 44 28 104 31 133 l7 52 -86 0
c-47 0 -88 -3 -90 -7z"/>
<path d="M2645 4723 c-4 -21 -9 -51 -11 -68 -3 -16 -20 -79 -37 -140 -30 -102
-32 -121 -31 -255 1 -105 5 -160 17 -200 62 -202 61 -196 61 -385 -1 -178 -1
-181 -38 -305 -60 -204 -61 -361 -1 -555 14 -44 31 -119 37 -167 l12 -88 90 0
89 0 -7 66 c-4 36 -17 100 -31 142 -41 134 -49 191 -48 337 1 119 5 155 28
240 15 55 33 125 41 155 9 34 15 104 15 180 0 126 0 130 -56 330 -47 166 -41
365 14 559 17 58 33 124 37 148 l6 43 -90 0 -91 0 -6 -37z"/>
<path d="M3016 4748 c-3 -7 -7 -35 -11 -62 -4 -27 -21 -97 -38 -155 -31 -101
-32 -114 -31 -271 0 -156 2 -171 32 -270 59 -191 65 -399 17 -570 -57 -204
-57 -207 -52 -354 4 -119 9 -157 35 -243 17 -57 33 -129 37 -160 12 -111 3
-103 106 -103 l92 0 -7 53 c-4 28 -20 99 -36 157 -45 161 -53 229 -47 369 5
120 16 174 64 331 12 41 16 93 17 210 0 150 -2 159 -38 280 -32 108 -38 143
-43 256 -6 145 2 211 47 374 16 58 30 119 32 135 l3 30 -88 3 c-64 2 -88 -1
-91 -10z"/>
<path d="M3372 4693 c-6 -37 -9 -69 -6 -72 2 -3 341 -13 752 -22 411 -10 804
-19 875 -21 l127 -3 0 93 0 92 -869 0 -868 0 -11 -67z"/>
<path d="M1840 4398 c-19 -113 -8 -272 29 -396 44 -152 55 -235 48 -375 -5
-116 -16 -173 -64 -327 -12 -41 -17 -93 -17 -210 0 -146 2 -161 32 -260 18
-58 37 -142 43 -187 l12 -83 90 0 90 0 -6 58 c-4 31 -20 104 -37 162 -64 218
-63 422 1 627 27 84 32 117 36 238 5 147 5 148 -52 360 -22 80 -27 124 -28
225 -1 69 1 151 6 183 l7 57 -89 0 -89 0 -12 -72z"/>
<path d="M1223 3275 c-29 -8 -75 -26 -103 -40 l-50 -25 57 -46 c32 -25 81 -70
108 -99 l50 -54 65 16 c75 17 190 13 258 -11 l42 -15 0 105 0 105 -52 24
c-119 54 -264 70 -375 40z"/>
<path d="M4250 2949 c-151 -177 -288 -336 -303 -355 l-28 -34 480 0 480 0 88
103 c48 56 94 109 101 118 11 15 -21 46 -262 253 -152 130 -277 236 -278 236
-2 0 -127 -145 -278 -321z"/>
<path d="M382 3180 c-96 -25 -164 -63 -227 -125 -113 -113 -178 -317 -149
-464 l6 -31 93 0 93 0 11 52 c15 69 62 163 111 220 160 186 453 225 659 87
112 -75 182 -183 215 -331 6 -26 9 -28 62 -28 55 0 56 0 50 25 -34 137 -141
306 -255 404 -205 177 -452 248 -669 191z"/>
<path d="M3595 3194 c-120 -28 -172 -48 -253 -97 l-54 -32 6 -50 c4 -27 12
-76 18 -107 l10 -57 56 45 c72 59 135 90 219 110 114 27 263 3 360 -57 l36
-22 16 20 c9 12 35 43 59 71 l42 50 -50 32 c-28 18 -90 46 -138 63 -73 25
-105 31 -197 33 -60 2 -119 1 -130 -2z"/>
<path d="M1413 2853 c-10 -7 -5 -27 19 -84 17 -40 39 -103 48 -139 l18 -65
118 0 119 0 -3 35 c-11 130 -38 174 -139 224 -53 27 -159 44 -180 29z"/>
<path d="M3643 2830 c-98 -20 -177 -82 -223 -172 -50 -101 -53 -98 114 -98
l144 0 96 113 c86 101 94 113 79 125 -38 28 -148 45 -210 32z"/>
<path d="M599 2806 c-85 -30 -155 -93 -190 -170 -37 -81 -58 -76 291 -76 348
0 327 -6 288 78 -32 69 -103 135 -171 161 -66 24 -162 27 -218 7z"/>
<path d="M0 2290 l0 -90 2560 0 2560 0 0 90 0 90 -2560 0 -2560 0 0 -90z"/>
<path d="M14 1943 c44 -433 273 -874 607 -1170 175 -155 435 -303 652 -372
l97 -31 1193 0 1192 0 118 40 c590 198 1039 688 1191 1299 26 103 46 221 46
270 l0 31 -2551 0 -2552 0 7 -67z m396 -145 c6 -24 18 -64 25 -90 l14 -47 -82
-29 c-45 -17 -85 -27 -89 -24 -9 9 -62 192 -57 197 5 4 139 33 161 34 12 1 21
-12 28 -41z m128 -340 c108 -201 292 -404 477 -527 61 -40 111 -77 113 -82 5
-14 -72 -149 -85 -149 -20 0 -214 134 -298 207 -96 83 -198 199 -275 313 -55
82 -115 189 -108 195 8 7 144 74 151 75 4 0 16 -14 25 -32z"/>
<path d="M1467 183 c-4 -3 -7 -46 -7 -95 l0 -88 1100 0 1101 0 -3 93 -3 92
-1091 3 c-600 1 -1094 -1 -1097 -5z"/>
</g>
</svg>
